<svg xmlns="http://www.w3.org/2000/svg" viewBox="0 0 48 48">
  <title>blog, content, article, post</title>
  <g>
    <path d="M39,6H9a5.0053,5.0053,0,0,0-5,5V37a5.0053,5.0053,0,0,0,5,5H39a5.0053,5.0053,0,0,0,5-5V11A5.0053,5.0053,0,0,0,39,6ZM9,8H39a3.0033,3.0033,0,0,1,3,3v3H6V11A3.0033,3.0033,0,0,1,9,8ZM39,40H9a3.0033,3.0033,0,0,1-3-3V16H42V37A3.0033,3.0033,0,0,1,39,40Z" fill="#646464"/>
    <path d="M9,12h2a1,1,0,0,0,0-2H9a1,1,0,0,0,0,2Z" fill="#646464"/>
    <path d="M15,12h2a1,1,0,0,0,0-2H15a1,1,0,0,0,0,2Z" fill="#646464"/>
    <path d="M37,20H11a1,1,0,0,0-1,1v6a1,1,0,0,0,1,1H37a1,1,0,0,0,1-1V21A1,1,0,0,0,37,20Zm-1,6H12V22H36Z" fill="#646464"/>
    <path d="M15,30H11a1,1,0,0,0-1,1v4a1,1,0,0,0,1,1h4a1,1,0,0,0,1-1V31A1,1,0,0,0,15,30Zm-1,4H12V32h2Z" fill="#646464"/>
    <path d="M37,30H19a1,1,0,0,0,0,2H37a1,1,0,0,0,0-2Z" fill="#646464"/>
    <path d="M37,34H19a1,1,0,0,0,0,2H37a1,1,0,0,0,0-2Z" fill="#646464"/>
  </g>
</svg>
